<svg version="1.1" xmlns="http://www.w3.org/2000/svg" xmlns:xlink="http://www.w3.org/1999/xlink" width="526" height="115"><style xmlns="http://www.w3.org/1999/xhtml"></style><defs/><g transform="translate(0,0)"><g><rect fill="#FFFFFF" stroke="none" x="0" y="0" width="526" height="115"/></g><g transform="translate(0,0) matrix(1,0,0,1,20,20)"><g><g transform="translate(0,0) scale(1,0.75)"><g><path fill="#b6d7a8" stroke="none" stroke-dasharray="1.7976931348623157e+308" d="M 0 0 L 100 0 Q 100 0 100 0 L 100 100 Q 100 100 100 100 L 0 100 Q 0 100 0 100 L 0 0 Q 0 0 0 0 Z"/><g transform="scale(1,1.3333333333333333)"><path fill="none" stroke="none" stroke-dasharray="1.7976931348623157e+308" d="M 0 0 L 100 0 Q 100 0 100 0 L 100 75 Q 100 75 100 75 L 0 75 Q 0 75 0 75 L 0 0 Q 0 0 0 0 Z"/><path fill="none" stroke="#333333" stroke-dasharray="1.7976931348623157e+308" d="M 0 0 L 100 0 Q 100 0 100 0 L 100 75 Q 100 75 100 75 L 0 75 Q 0 75 0 75 L 0 0 Q 0 0 0 0 Z" stroke-miterlimit="10" stroke-width="2"/></g></g></g></g></g><g transform="matrix(1,0,0,1,30,51)"><g><g><rect fill="rgb(0,0,0)" stroke="none" x="0" y="0" width="81" height="14" fill-opacity="0"/></g></g><g><g><rect fill="rgb(0,0,0)" stroke="none" x="0" y="0" width="81" height="14" fill-opacity="0"/></g></g><g><g><rect fill="rgb(0,0,0)" stroke="none" x="8.5" y="0" width="64" height="14" fill-opacity="0"/></g></g><g><g><rect fill="rgb(0,0,0)" stroke="none" x="8.5" y="0" width="64" height="14" fill-opacity="0"/></g><text fill="rgb(0, 0, 0)" stroke="none" font-family="Arial" font-size="12px" font-style="normal" font-weight="normal" text-decoration="" line-height="14px" x="9" y="12">SP</text><text fill="rgb(0, 0, 0)" stroke="none" font-family="Arial" font-size="12px" font-style="normal" font-weight="normal" text-decoration="" line-height="14px" x="25" y="12">-</text><text fill="rgb(0, 0, 0)" stroke="none" font-family="Arial" font-size="12px" font-style="normal" font-weight="normal" text-decoration="" line-height="14px" x="29" y="12">Network</text></g></g><g transform="translate(0,0) matrix(1,0,0,1,210,20)"><g><g transform="translate(0,0) scale(1,0.75)"><g><path fill="#b6d7a8" stroke="none" stroke-dasharray="1.7976931348623157e+308" d="M 0 0 L 100 0 Q 100 0 100 0 L 100 100 Q 100 100 100 100 L 0 100 Q 0 100 0 100 L 0 0 Q 0 0 0 0 Z"/><g transform="scale(1,1.3333333333333333)"><path fill="none" stroke="none" stroke-dasharray="1.7976931348623157e+308" d="M 0 0 L 100 0 Q 100 0 100 0 L 100 75 Q 100 75 100 75 L 0 75 Q 0 75 0 75 L 0 0 Q 0 0 0 0 Z"/><path fill="none" stroke="#333333" stroke-dasharray="1.7976931348623157e+308" d="M 0 0 L 100 0 Q 100 0 100 0 L 100 75 Q 100 75 100 75 L 0 75 Q 0 75 0 75 L 0 0 Q 0 0 0 0 Z" stroke-miterlimit="10" stroke-width="2"/></g></g></g></g></g><g transform="matrix(1,0,0,1,220,51)"><g><g><rect fill="rgb(0,0,0)" stroke="none" x="0" y="0" width="81" height="14" fill-opacity="0"/></g></g><g><g><rect fill="rgb(0,0,0)" stroke="none" x="0" y="0" width="81" height="14" fill-opacity="0"/></g></g><g><g><rect fill="rgb(0,0,0)" stroke="none" x="12.15625" y="0" width="57" height="14" fill-opacity="0"/></g></g><g><g><rect fill="rgb(0,0,0)" stroke="none" x="12.15625" y="0" width="57" height="14" fill-opacity="0"/></g><text fill="rgb(0, 0, 0)" stroke="none" font-family="Arial" font-size="12px" font-style="normal" font-weight="normal" text-decoration="" line-height="14px" x="12" y="12">SP</text><text fill="rgb(0, 0, 0)" stroke="none" font-family="Arial" font-size="12px" font-style="normal" font-weight="normal" text-decoration="" line-height="14px" x="28" y="12">-</text><text fill="rgb(0, 0, 0)" stroke="none" font-family="Arial" font-size="12px" font-style="normal" font-weight="normal" text-decoration="" line-height="14px" x="32" y="12">Library</text></g></g><g transform="translate(0,0) matrix(1,0,0,1,400,20)"><g><g transform="translate(0,0) scale(1,0.75)"><g><path fill="#b6d7a8" stroke="none" stroke-dasharray="1.7976931348623157e+308" d="M 0 0 L 100 0 Q 100 0 100 0 L 100 100 Q 100 100 100 100 L 0 100 Q 0 100 0 100 L 0 0 Q 0 0 0 0 Z"/><g transform="scale(1,1.3333333333333333)"><path fill="none" stroke="none" stroke-dasharray="1.7976931348623157e+308" d="M 0 0 L 100 0 Q 100 0 100 0 L 100 75 Q 100 75 100 75 L 0 75 Q 0 75 0 75 L 0 0 Q 0 0 0 0 Z"/><path fill="none" stroke="#333333" stroke-dasharray="1.7976931348623157e+308" d="M 0 0 L 100 0 Q 100 0 100 0 L 100 75 Q 100 75 100 75 L 0 75 Q 0 75 0 75 L 0 0 Q 0 0 0 0 Z" stroke-miterlimit="10" stroke-width="2"/></g></g></g></g></g><g transform="matrix(1,0,0,1,410,51)"><g><g><rect fill="rgb(0,0,0)" stroke="none" x="0" y="0" width="81" height="14" fill-opacity="0"/></g></g><g><g><rect fill="rgb(0,0,0)" stroke="none" x="0" y="0" width="81" height="14" fill-opacity="0"/></g></g><g><g><rect fill="rgb(0,0,0)" stroke="none" x="7.8125" y="0" width="65" height="14" fill-opacity="0"/></g></g><g><g><rect fill="rgb(0,0,0)" stroke="none" x="7.8125" y="0" width="65" height="14" fill-opacity="0"/></g><text fill="rgb(0, 0, 0)" stroke="none" font-family="Arial" font-size="12px" font-style="normal" font-weight="normal" text-decoration="" line-height="14px" x="8" y="12">SP</text><text fill="rgb(0, 0, 0)" stroke="none" font-family="Arial" font-size="12px" font-style="normal" font-weight="normal" text-decoration="" line-height="14px" x="24" y="12">-</text><text fill="rgb(0, 0, 0)" stroke="none" font-family="Arial" font-size="12px" font-style="normal" font-weight="normal" text-decoration="" line-height="14px" x="28" y="12">Instance</text></g></g><g transform="matrix(1,0,0,1,105,42.5)"><g transform="translate(0,0)"><g transform="translate(-71,-272) translate(-34,229.5) matrix(1,0,0,1,0,0)"><g><g><path fill="none" stroke="#000000" stroke-dasharray="undefined" d="M 120 57.5 L 210 57.5" stroke-miterlimit="10" stroke-width="2"/></g></g></g></g></g><g transform="matrix(1,0,0,1,174,71)"><g><path fill="none" stroke="none" stroke-dasharray="1.7976931348623157e+308" d="M 0 0 L 33 0 L 33 14 L 0 14 Z"/><g><rect fill="rgb(255, 255, 255)" stroke="none" x="0" y="0" width="33" height="14"/></g></g><g><path fill="none" stroke="none" stroke-dasharray="1.7976931348623157e+308" d="M 0 0 L 33 0 L 33 14 L 0 14 Z"/><g><rect fill="rgb(0,0,0)" stroke="none" x="0" y="0" width="33" height="14" fill-opacity="0"/></g></g><g><path fill="none" stroke="none" stroke-dasharray="1.7976931348623157e+308" d="M 3 0 L 30 0 L 30 14 L 3 14 Z"/><g><rect fill="rgb(0,0,0)" stroke="none" x="3" y="0" width="27" height="14" fill-opacity="0"/></g></g><g><path fill="none" stroke="none" stroke-dasharray="1.7976931348623157e+308" d="M 3 0 L 30 0 L 30 14 L 3 14 Z"/><g><rect fill="rgb(0,0,0)" stroke="none" x="3" y="0" width="27" height="14" fill-opacity="0"/></g><text fill="rgb(0, 0, 0)" stroke="none" font-family="Arial" font-size="12px" font-style="normal" font-weight="normal" text-decoration="" line-height="14px" x="3" y="12">0</text><text fill="rgb(0, 0, 0)" stroke="none" font-family="Arial" font-size="12px" font-style="normal" font-weight="normal" text-decoration="" line-height="14px" x="10" y="12"> ..</text><text fill="rgb(0, 0, 0)" stroke="none" font-family="Arial" font-size="12px" font-style="normal" font-weight="normal" text-decoration="" line-height="14px" x="23" y="12">n</text></g></g><g transform="matrix(1,0,0,1,124,31)"><g><path fill="none" stroke="none" stroke-dasharray="1.7976931348623157e+308" d="M 0 0 L 13 0 L 13 14 L 0 14 Z"/><g><rect fill="rgb(255, 255, 255)" stroke="none" x="0" y="0" width="13" height="14"/></g></g><g><path fill="none" stroke="none" stroke-dasharray="1.7976931348623157e+308" d="M 0 0 L 13 0 L 13 14 L 0 14 Z"/><g><rect fill="rgb(0,0,0)" stroke="none" x="0" y="0" width="13" height="14" fill-opacity="0"/></g></g><g><path fill="none" stroke="none" stroke-dasharray="1.7976931348623157e+308" d="M 3 0 L 10 0 L 10 14 L 3 14 Z"/><g><rect fill="rgb(0,0,0)" stroke="none" x="3" y="0" width="7" height="14" fill-opacity="0"/></g></g><g><path fill="none" stroke="none" stroke-dasharray="1.7976931348623157e+308" d="M 3 0 L 10 0 L 10 14 L 3 14 Z"/><g><rect fill="rgb(0,0,0)" stroke="none" x="3" y="0" width="7" height="14" fill-opacity="0"/></g><text fill="rgb(0, 0, 0)" stroke="none" font-family="Arial" font-size="12px" font-style="normal" font-weight="normal" text-decoration="" line-height="14px" x="3" y="12">1</text></g></g><g transform="matrix(1,0,0,1,295,42.5)"><g transform="translate(0,0)"><g transform="translate(-81,-282) translate(-214,239.5) matrix(1,0,0,1,0,0)"><g><g><path fill="none" stroke="#000000" stroke-dasharray="undefined" d="M 310 57.5 L 400 57.5" stroke-miterlimit="10" stroke-width="2"/></g></g></g></g></g><g transform="matrix(1,0,0,1,364,71)"><g><path fill="none" stroke="none" stroke-dasharray="1.7976931348623157e+308" d="M 0 0 L 33 0 L 33 14 L 0 14 Z"/><g><rect fill="rgb(255, 255, 255)" stroke="none" x="0" y="0" width="33" height="14"/></g></g><g><path fill="none" stroke="none" stroke-dasharray="1.7976931348623157e+308" d="M 0 0 L 33 0 L 33 14 L 0 14 Z"/><g><rect fill="rgb(0,0,0)" stroke="none" x="0" y="0" width="33" height="14" fill-opacity="0"/></g></g><g><path fill="none" stroke="none" stroke-dasharray="1.7976931348623157e+308" d="M 3 0 L 30 0 L 30 14 L 3 14 Z"/><g><rect fill="rgb(0,0,0)" stroke="none" x="3" y="0" width="27" height="14" fill-opacity="0"/></g></g><g><path fill="none" stroke="none" stroke-dasharray="1.7976931348623157e+308" d="M 3 0 L 30 0 L 30 14 L 3 14 Z"/><g><rect fill="rgb(0,0,0)" stroke="none" x="3" y="0" width="27" height="14" fill-opacity="0"/></g><text fill="rgb(0, 0, 0)" stroke="none" font-family="Arial" font-size="12px" font-style="normal" font-weight="normal" text-decoration="" line-height="14px" x="3" y="12">0</text><text fill="rgb(0, 0, 0)" stroke="none" font-family="Arial" font-size="12px" font-style="normal" font-weight="normal" text-decoration="" line-height="14px" x="10" y="12"> ..</text><text fill="rgb(0, 0, 0)" stroke="none" font-family="Arial" font-size="12px" font-style="normal" font-weight="normal" text-decoration="" line-height="14px" x="23" y="12">n</text></g></g><g transform="matrix(1,0,0,1,317,31)"><g><path fill="none" stroke="none" stroke-dasharray="1.7976931348623157e+308" d="M 0 0 L 13 0 L 13 14 L 0 14 Z"/><g><rect fill="rgb(255, 255, 255)" stroke="none" x="0" y="0" width="13" height="14"/></g></g><g><path fill="none" stroke="none" stroke-dasharray="1.7976931348623157e+308" d="M 0 0 L 13 0 L 13 14 L 0 14 Z"/><g><rect fill="rgb(0,0,0)" stroke="none" x="0" y="0" width="13" height="14" fill-opacity="0"/></g></g><g><path fill="none" stroke="none" stroke-dasharray="1.7976931348623157e+308" d="M 3 0 L 10 0 L 10 14 L 3 14 Z"/><g><rect fill="rgb(0,0,0)" stroke="none" x="3" y="0" width="7" height="14" fill-opacity="0"/></g></g><g><path fill="none" stroke="none" stroke-dasharray="1.7976931348623157e+308" d="M 3 0 L 10 0 L 10 14 L 3 14 Z"/><g><rect fill="rgb(0,0,0)" stroke="none" x="3" y="0" width="7" height="14" fill-opacity="0"/></g><text fill="rgb(0, 0, 0)" stroke="none" font-family="Arial" font-size="12px" font-style="normal" font-weight="normal" text-decoration="" line-height="14px" x="3" y="12">1</text></g></g></g></svg>